<svg width="465" height="274" viewBox="0 0 465 274" fill="none" xmlns="http://www.w3.org/2000/svg">
<path d="M81.4024 113.214C73.6198 116.159 64.7854 117.631 54.8993 117.631C22.5066 117.631 6.31027 101.961 6.31027 70.6195C6.31027 40.9613 22.5066 26.1322 54.8993 26.1322C64.7854 26.1322 73.6198 27.6046 81.4024 30.5494V45.694C73.6198 42.3285 65.2061 40.6458 56.1614 40.6458C34.4961 40.6458 23.6635 50.637 23.6635 70.6195C23.6635 92.2848 34.4961 103.117 56.1614 103.117C65.2061 103.117 73.6198 101.435 81.4024 98.0692V113.214ZM92.4454 96.3654C92.4454 83.198 102.037 76.6143 121.22 76.6143C125.722 76.6143 130.223 77.035 134.724 77.8764V72.8912C134.724 66.9596 130.454 63.9938 121.914 63.9938C114.679 63.9938 106.643 65.0455 97.8091 67.1489V53.8973C106.643 51.7939 114.679 50.7422 121.914 50.7422C141.602 50.7422 151.446 58.0201 151.446 72.5757V117H141.729L135.797 111.068C130.034 115.023 123.681 117 116.74 117C100.544 117 92.4454 110.122 92.4454 96.3654ZM134.724 89.2348C130.517 88.3935 126.016 87.9728 121.22 87.9728C113.185 87.9728 109.168 90.7072 109.168 96.1761C109.168 102.066 112.533 105.01 119.264 105.01C124.817 105.01 129.97 103.286 134.724 99.8361V89.2348ZM184.007 99.7099C188.172 101.982 192.652 103.117 197.448 103.117C207.418 103.117 212.404 96.113 212.404 82.1042C212.404 70.1989 206.893 64.2462 195.871 64.2462C191.117 64.2462 187.162 64.5407 184.007 65.1296V99.7099ZM167.285 53.4556C176.077 51.6467 185.375 50.7422 195.177 50.7422C217.683 50.7422 228.936 61.2383 228.936 82.2304C228.936 105.41 218.461 117 197.511 117C193.052 117 188.551 115.948 184.007 113.845V140.979H167.285V53.4556ZM240.674 40.0148H253.042L255.566 50.7422H272.225V63.9938H257.396V94.4724C257.396 100.656 260.067 103.748 265.41 103.748H272.225V117H257.333C246.227 117 240.674 111.047 240.674 99.1419V40.0148ZM343.278 50.7422V117H330.216L328.197 108.544C320.583 114.181 312.505 117 303.965 117C290.419 117 283.646 108.986 283.646 92.9579V50.7422H300.369V92.5162C300.369 99.8361 303.566 103.496 309.96 103.496C315.387 103.496 320.919 101.33 326.556 96.9965V50.7422H343.278ZM359.117 117V50.7422H372.053L374.136 59.198C379.941 53.5608 386.083 50.7422 392.562 50.7422V64.2462C386.335 64.2462 380.761 66.8334 375.839 72.0078V117H359.117ZM429.981 50.7422C450.09 50.7422 460.145 61.0069 460.145 81.5363C460.145 84.2708 459.955 87.0052 459.577 89.7397H415.594C415.594 99.0788 422.451 103.748 436.166 103.748C442.854 103.748 449.543 103.117 456.232 101.855V115.107C450.385 116.369 443.275 117 434.904 117C410.882 117 398.872 105.705 398.872 83.1139C398.872 61.5328 409.242 50.7422 429.981 50.7422ZM415.594 78.1288H443.864V77.6239C443.864 68.453 439.237 63.8676 429.981 63.8676C421.147 63.8676 416.351 68.6213 415.594 78.1288Z" fill="#F9DF00"/>
<path d="M96.6884 246V155.763H103.314L144.015 238.238L182.192 155.763H188.187V246H182.192V167.942L146.35 246H140.923L102.683 167.311V246H96.6884ZM204.594 227.259C204.594 214.091 213.344 207.507 230.845 207.507C237.029 207.507 243.633 207.928 250.659 208.769V200.629C250.659 190.491 244.285 185.421 231.539 185.421C224.724 185.421 217.74 186.473 210.589 188.577V182.897C217.74 180.794 224.724 179.742 231.539 179.742C248.703 179.742 257.285 186.599 257.285 200.314V246H253.246L251.732 239.437C243.444 243.812 235.409 246 227.626 246C212.271 246 204.594 239.753 204.594 227.259ZM230.845 213.187C217.761 213.187 211.22 217.814 211.22 227.069C211.22 235.904 216.689 240.321 227.626 240.321C235.704 240.321 243.381 238.175 250.659 233.884V214.449C243.633 213.607 237.029 213.187 230.845 213.187ZM277.288 169.015H281.958L283.157 179.742H303.034V185.421H283.725V227.259C283.725 235.967 286.922 240.321 293.316 240.321H303.034V246H293.442C282.673 246 277.288 240.047 277.288 228.142V169.015ZM343.861 179.742C361.993 179.742 371.059 189.776 371.059 209.842C371.059 211.273 371.017 212.766 370.933 214.322H320.64C320.64 231.655 329.811 240.321 348.152 240.321C355.683 240.321 362.372 239.269 368.219 237.166V242.845C362.372 244.948 355.683 246 348.152 246C325.393 246 314.014 234.705 314.014 212.114C314.014 190.533 323.963 179.742 343.861 179.742ZM320.64 208.391H364.685C364.433 192.994 357.492 185.295 343.861 185.295C329.138 185.295 321.397 192.994 320.64 208.391Z" fill="white"/>
</svg>
